<?xml version="1.0" encoding="UTF-8"?>
<svg width="134px" height="150px" viewBox="0 0 134 150" version="1.1" xmlns="http://www.w3.org/2000/svg" xmlns:xlink="http://www.w3.org/1999/xlink">
    
    <title>45227296-D9C8-43EB-B226-EBA9EA3F55AC@1.00x</title>
    <desc>Created with sketchtool.</desc>
    <g id="Homepage" stroke="none" stroke-width="1" fill="none" fill-rule="evenodd">
        <g id="Homepage-Redesign" transform="translate(-270.000000, -767.000000)" fill="#F5801F">
            <path d="M383.309101,816.046636 C383.158073,816.546781 382.833362,816.963567 382.372725,817.21364 L340.273542,839.992938 C339.427782,840.455192 338.544266,840.765888 337.622992,840.978071 C336.60355,841.303922 335.606762,841.500949 334.69304,841.500949 C331.891462,841.500949 329.799718,840.356679 329.671344,840.296056 L290.177402,818.297286 C289.913102,818.145727 289.746971,817.895655 289.648802,817.630427 L288.871006,817.198484 C287.934629,816.675606 287.587264,815.485868 288.100761,814.538626 C288.349958,814.083949 288.757735,813.742941 289.26368,813.598961 C289.762074,813.447402 290.298225,813.508025 290.758862,813.765675 L331.581854,836.507084 C332.178416,836.802624 335.304706,838.234855 338.423443,836.544974 L380.507523,813.765675 C380.953057,813.508025 381.511862,813.45498 382.010256,813.606538 C382.50865,813.758097 382.916427,814.099105 383.158073,814.568937 C383.40727,815.008458 383.46013,815.538914 383.309101,816.046636 L383.309101,816.046636 Z M380.009129,874.36649 C377.992899,877.875078 375.991772,881.391243 374.028402,884.922565 L355.293322,894.978496 C353.443223,893.326504 351.275965,892.212547 349.289941,890.787893 C348.897267,890.590867 348.663173,890.151346 348.64807,889.575422 C348.663173,886.597291 348.632967,883.634315 348.617864,882.194505 L360.148887,876.003326 C360.156438,875.571383 360.201747,876.617139 360.194196,877.678051 C360.171541,879.754408 361.009749,880.398533 362.693717,879.496757 C363.917047,878.86021 365.132826,878.216085 366.341054,877.541648 C368.327078,876.480736 369.112426,875.063661 369.044463,872.737232 C369.02936,872.085529 369.089772,871.358046 369.074669,870.683609 C369.097323,869.933393 368.863229,869.319579 368.402592,869.039195 C367.949507,868.736078 367.315187,868.781545 366.726176,869.137709 C363.267625,870.994305 359.831727,872.813011 356.403381,874.692341 C355.76151,875.093972 355.104536,875.131862 354.621245,874.783277 C352.854212,873.55565 351.041871,872.403802 349.214427,871.267111 C348.799098,871.070084 348.54235,870.562362 348.565004,869.918237 C348.549901,865.52303 348.519696,861.158134 348.481939,856.778083 C348.466836,856.08849 348.685827,855.353429 349.093604,854.709304 C350.958805,851.496256 352.816455,848.260474 354.621245,845.024692 C354.991265,844.350255 355.519865,843.812221 356.086221,843.539415 C361.681826,840.546128 367.262327,837.567996 372.842829,834.536819 C373.371429,834.210967 373.892477,834.188233 374.292702,834.468617 C376.120147,835.741712 377.970245,836.96176 379.835447,838.181809 C380.243223,838.36368 380.477318,838.803201 380.49242,839.379124 C380.477318,842.440614 380.515075,845.502103 380.530178,847.4269 L368.991603,853.61808 C368.984052,853.61808 368.946295,852.511701 368.9765,851.397743 C369.006706,849.222873 368.12319,848.586326 366.393914,849.518413 C365.193238,850.162538 363.962356,850.821819 362.754128,851.473522 C360.813412,852.519279 360.012961,853.974244 360.088476,856.330984 C360.103578,856.967531 360.080924,857.619235 360.065821,858.248204 C360.050719,860.173001 360.904029,860.779237 362.482277,859.930507 C365.804903,858.142113 369.142632,856.406764 372.457706,854.550167 C373.333671,854.012133 374.224739,853.9894 374.828853,854.542589 C376.444858,855.747482 378.136376,856.82355 379.820344,857.899618 C380.318738,858.142113 380.59814,858.718036 380.59814,859.453097 C380.59814,863.734635 380.635897,868.008595 380.681206,872.290133 C380.673655,872.972148 380.409355,873.729942 380.009129,874.36649 L380.009129,874.36649 Z M295.644632,882.270285 C295.644632,882.270285 295.667287,872.434114 295.644632,872.418958 L298.000676,873.767832 L297.879853,848.798508 L295.644632,847.222296 L295.644632,837.03754 L312.182249,845.706707 L312.13694,855.967243 L308.889828,854.337985 L308.84452,878.913256 L318.850155,884.31633 L318.835052,879.026925 L328.825585,884.399687 L329.074782,900.298212 L295.644632,882.270285 Z M398.955649,800.746768 L342.085883,768.282858 C340.228233,767.221946 336.022091,766.024631 332.072697,768.282858 L275.119865,800.875593 C273.254663,801.944083 270.083066,804.982839 270.083066,809.575073 L270,874.54836 C270,876.708074 271.057199,880.982034 275.044351,883.255417 L331.906565,915.71175 C332.99397,916.333141 334.874274,917 337.033981,917 L398.887687,883.119014 C400.76044,882.042947 403.916934,879.011769 403.924486,874.419535 L404,809.446247 C404,807.278956 402.942801,803.012573 398.955649,800.746768 L398.955649,800.746768 Z" id="icon_full_orange"></path>
        </g>
    </g>
</svg>
