<svg xmlns="http://www.w3.org/2000/svg" viewBox="0 0 169 28">
  <g fill="#CCCDCE" fill-rule="evenodd">
    <path d="M118 28L118.482751 23.4779451C119.439709 23.7834028 119.557193 23.0016021 119.84129 22.4483606 121.436933 19.3553348 123.026167 16.260173 124.606857 13.1628752 124.700844 12.9813094 124.856777 12.8146962 124.820464 12.5370074L124.07284 12.4729254C124.188188 11.321585 124.282175 10.1980135 124.418883 9.07657804 124.549183 7.99786395 124.568408 8.00000002 125.689843 8.00000002L135.34914 8.00000002 134.879205 12.4793336 133.962832 12.5327352C133.836804 12.7548863 133.971377 12.9279077 134.022642 13.1030653 135.01805 16.3883371 136.03909 19.6650646 136.991776 22.9610168 137.164798 23.5548435 137.547154 23.475809 138 23.5121222L137.564242 28 130.491723 28C130.592118 26.9661433 130.690377 25.9301506 130.79718 24.8962939 130.837766 24.4754886 130.752323 23.9521521 130.974474 23.6573748 131.294884 23.2344334 131.089822 22.9482004 131.010787 22.5658443 129.291253 22.5658443 127.605896 22.5679804 125.920538 22.5658443 125.71334 22.5658443 125.64285 22.6982805 125.514685 22.8221724 125.117377 23.1981203 125.578767 23.5206665 125.538182 23.8645733 125.380113 25.2444729 125.22418 26.6201004 125.070383 28L118 28zM129.052013 15.6150806L127.441418 18.69529 130.02606 18.69529 129.052013 15.6150806zM103.856026 28C103.068507 26.9619113 102.107175 26.0712056 101.248843 25.0950605 101.07503 24.9369976 100.984906 24.7127191 101.002072 24.4820328 101.135114 23.320057 101.25528 22.1580811 101.379738 20.9747455L107.00825 20.9747455C106.96748 21.4190303 106.946021 21.8376834 106.89023 22.2542005 106.785084 23.0616028 107.152021 23.4930717 107.971728 23.4952077L109.754913 23.4952077C110.720536 23.4952077 111.151848 23.1043225 111.226952 22.181577 111.246265 21.9145788 111.297765 21.6475807 111.321369 21.3784466 111.368577 21.0943606 111.280598 20.8017307 111.081036 20.5881322 110.881474 20.3723977 110.591787 20.2591905 110.295662 20.2784144 108.615477 20.2762784 106.931001 20.2698704 105.250816 20.2848223 104.935379 20.3061822 104.630671 20.1758871 104.431109 19.9430647 103.656464 19.0908067 102.866799 18.2556366 102.06855 17.4268744 101.879717 17.2559957 101.789592 17.0060854 101.821779 16.7583112 102.008467 15.0367073 102.184425 13.3129674 102.353945 11.5892276 102.381841 11.3222294 102.519174 11.0765912 102.738049 10.9099843 103.742297 10.0406385 104.742254 9.16274864 105.731482 8.27845086 105.928898 8.09048419 106.197127 7.99009289 106.469647 8.00077282 109.201289 8.01358873 111.928639 8.01358873 114.66028 8.0029088 114.915634 7.98368494 115.16455 8.08621222 115.329779 8.27845086 116.123736 9.16061265 116.932714 10.0320945 117.743838 10.9014404 117.921942 11.0530953 118.018504 11.2795097 117.997046 11.5123321 117.861859 12.7127556 117.743838 13.9131792 117.617234 15.1349626L111.98443 15.1349626C112.027347 14.6671819 112.057388 14.229305 112.117472 13.793564 112.229055 12.9583939 111.853535 12.518381 111.003786 12.516245L109.222747 12.516245C108.276436 12.516245 107.840832 12.9242182 107.77002 13.8640515 107.752853 14.1139618 107.712083 14.3596 107.682041 14.6073743 107.58977 15.361377 107.956707 15.7714861 108.731352 15.7736221 110.353599 15.7757581 111.977993 15.7949819 113.598094 15.7629422 114.029406 15.7351744 114.447843 15.923141 114.703197 16.2627626 115.402737 17.0723009 116.143049 17.8519355 116.879068 18.627298 117.097943 18.8259446 117.205235 19.1100306 117.170901 19.3983886 116.984214 21.0815447 116.816839 22.7668368 116.65161 24.452129 116.612986 24.7191271 116.462777 24.9604934 116.239611 25.1185563 115.153821 26.0754776 114.076614 27.0345348 112.999408 28L103.856026 28zM152 28C152.012874 26.4983445 152.317556 25.026594 152.405528 23.5249386L153.126467 23.4587205 154.297993 12.5840009C154.038369 12.4237958 153.752998 12.5797287 153.456898 12.4280679L153.937524 8 169 8 169 8.92491723C168.759687 9.29872904 168.81762 9.73021467 168.761833 10.1382036 168.635239 11.1058421 168.536539 12.0777529 168.424965 13.0539357L163.786066 13.0539357C163.672346 12.874506 163.843998 12.68226 163.689512 12.5391434L160.084816 12.5391434 159.754386 15.6919791C160.009719 15.7603332 160.275779 15.7624693 160.533258 15.7047955 160.715638 15.5360461 160.49249 15.1301933 160.906601 15.1280572 162.378518 15.121649 163.84829 15.1259212 165.408179 15.1259212L164.753755 20.8078607 160.037612 20.8078607 160.06336 20.278116 159.260886 20.278116 158.911145 23.4608566 162.545879 23.4608566 162.728259 22.8606216 167.429383 22.8606216 166.815726 28 152 28z"/>
    <path d="M137 28C137.244604 26.671366 137.287517 25.3192353 137.465606 23.982057 137.482772 23.8325323 137.497791 23.6830076 137.523539 23.4822172L138.72725 23.4822172 139.851571 12.5925451C139.621987 12.3832105 139.360217 12.5412795 139.05768 12.3917548L139.497539 8 154 8 153.463587 13.0154865 148.989903 13.0154865C148.835416 12.9022749 149.009214 12.6715796 148.889057 12.4985582L145.44314 12.4985582 145.101982 15.6727545C145.447432 15.6684823 145.846523 15.9525793 145.990281 15.3758411 146.028903 15.2284524 146.168371 15.2498131 146.28209 15.2498131 147.681055 15.247677 149.08002 15.2498131 150.554083 15.2498131L150.073457 20.7288262C148.580083 20.7288262 147.125331 20.722418 145.672725 20.7352344 145.305819 20.7373705 145.462451 20.4425932 145.370188 20.2802521 145.129875 20.2183061 144.876688 20.21617 144.632084 20.2738439L144.301653 23.4715369 146.59321 23.4715369C146.573899 25.0308662 146.19841 26.5004806 146.239177 28L137 28zM70.7249956 28C70.1981277 27.3848126 69.7420642 26.6969988 69.1339795 26.1757984 68.1010685 25.2850582 67.8719954 24.3046032 68.0594188 22.967425 68.5279772 19.581758 68.8070298 16.1683221 69.1589692 12.7677027 69.1610517 12.68226 69.1548043 12.5989533 69.1443919 12.5135106L68.3592962 12.4430204 68.8195247 8 76.4809754 8 75.8916331 13.8143757 77.7075573 13.8143757 78.3177244 8.01068034 86 8.01068034 85.5439365 12.4964221C84.6630466 12.2614547 84.6672116 12.7997437 84.6089021 13.3850262 84.2507152 16.9992524 83.8696211 20.6113425 83.4677021 24.2212966 83.4135575 24.5716117 83.251124 24.8941579 82.9991436 25.1440778 82.1265837 25.9814162 81.1998793 26.765353 80.3023296 27.5749226 80.1711333 27.7094948 80.0503493 27.8504753 79.9399778 28L70.7249956 28zM75.0211557 22.8243084C75.4897141 22.8243084 75.8978805 22.7965396 76.301882 22.8307167 76.6913061 22.8584855 76.816255 22.6918723 76.8474922 22.3394211 76.9203791 21.5298515 77.0369981 20.7266902 77.0973901 19.9149845 77.0848952 19.5134038 77.2910609 19.1353199 77.6388354 18.9217131 78.4489208 18.3898323 78.7779529 17.1103279 78.4114361 16.2687173 78.0699091 15.4869166 77.2556587 15.087472 76.3143769 15.2412688 75.3231155 15.4399231 74.5505148 16.2024992 74.352679 17.176546 74.2048228 17.904945 74.408906 18.537221 75.0211557 18.9687066 75.2710535 19.1246395 75.3939199 19.4172808 75.3272805 19.6992417 75.2231564 20.7117377 75.1273622 21.7263698 75.0211557 22.8243084zM29 28L29.4893891 23.5655239C29.5497818 23.5398911 29.608092 23.4907615 29.6539072 23.5014418 30.5493852 23.695824 30.9117414 23.1959842 31.2678501 22.4889459 32.8588854 19.3403824 34.5040658 16.2153156 36.1284213 13.0838406 36.2117215 12.9172274 36.2825268 12.7420698 36.3741571 12.5305992L35.5411543 12.4836057C35.6411146 11.48179 35.741075 10.4906547 35.8431178 9.49951938 35.8493653 9.44184556 35.8618604 9.38417174 35.8701904 9.32649792 36.0472035 8 36.0472035 8 37.4029155 8L46.9345498 8C46.8137644 9.18765353 46.701309 10.2984086 46.5888536 11.4070277 46.5846886 11.4454769 46.5742761 11.4839261 46.5701111 11.5223753 46.4430781 12.4494286 46.4430781 12.4494286 45.4372273 12.558368L48.7983935 23.4886254 50 23.4886254 49.6209837 28 41.6345696 28 42.0781436 23.5313468 42.790361 23.4330877 42.5571202 22.5658443 37.9214597 22.5658443C37.0447243 22.5658443 37.0447243 22.5658443 36.7823284 23.4501762L37.3820904 23.5462993 36.8656287 28 29 28zM38.9523007 18.6803375L41.5595994 18.6803375 40.5704086 15.6300331 38.9523007 18.6803375zM53.8379853 28C53.0119012 27.0708354 52.2029825 26.1288548 51.3468591 25.2253224 51.0743586 24.9519131 50.9499096 24.5674312 51.0185711 24.1914933 51.4562884 20.1886097 51.8789859 16.1857261 52.2845181 12.1785705 52.351034 11.5356313 52.5291248 11.0315329 53.0762714 10.6021948 53.9860367 9.89090327 54.8121207 9.07708328 55.7004293 8.33802366 55.932162 8.14791872 56.2218278 8.03471017 56.5265134 8.01762209 59.2236241 7.99412597 61.9228806 7.99412597 64.6178457 8.01762209 64.9010745 8.02830214 65.1692836 8.13937468 65.3731225 8.33161562 66.1927696 9.16893173 66.9823772 10.03188 67.7548194 10.9119163 67.9200362 11.1148373 68.0080088 11.3690225 67.9994261 11.6253438 67.9050165 12.8535498 67.7719848 14.0796198 67.6239334 15.3056898 67.606768 15.4381224 67.4115118 15.6538595 67.2934997 15.6538595 65.534048 15.6752196 63.7724506 15.6709476 61.940046 15.6709476 62.0172902 14.9639281 62.0923887 14.320989 62.1524676 13.6780498 62.2275661 12.9411262 61.8327623 12.5160601 61.0817768 12.5139241 60.4659687 12.5117881 59.8523063 12.5139241 59.2364982 12.5139241 58.3245872 12.5139241 57.8697046 12.9261741 57.7774406 13.8040744 57.4813378 16.6812805 57.1809436 19.5542146 56.876258 22.4271487 56.8397816 22.702694 56.9298999 22.9782394 57.1208647 23.1811604 57.3118296 23.3862174 57.5843301 23.4994259 57.8675589 23.4951539 58.5005324 23.4972899 59.1377972 23.4951539 59.7707707 23.4951539 60.7320322 23.4951539 61.13971 23.1234881 61.2362653 22.1750995 61.2748874 21.7991616 61.3156552 21.4210878 61.3650056 20.9661175L59.8029558 20.9661175 60.234236 16.9098337 67.4501339 16.9098337C67.3385589 18.0120151 67.2377123 19.0800203 67.1261373 20.1480255 66.9823772 21.5278883 66.8514911 22.907751 66.6712546 24.2833418 66.6240498 24.5951993 66.4781441 24.8856967 66.2485571 25.1099778 65.186449 26.0946787 64.0878645 27.0409313 63.002154 28L53.8379853 28z"/>
    <path d="M15 28L15.579326 22.8819823 16.4182759 22.7944035 17.5104127 12.5284631 16.6736085 12.4515647 17.1456519 8 32 8 31.4786066 12.9599487 29.8779503 12.9599487C29.0175439 12.9599487 28.1592831 12.9514045 27.303168 12.9663569 26.9813202 12.9727651 26.7410072 12.9449963 26.8375615 12.5220549L23.2221381 12.5220549 22.8788338 15.7176119C23.2564685 15.6748905 23.6469772 15.941899 23.8057554 15.4121542 23.8186293 15.3587525 23.9709706 15.3138951 24.0589423 15.3138951 25.4922378 15.3074869 26.9233876 15.309623 28.4596744 15.309623L27.8610375 20.6775606 23.2629055 20.6775606 23.1684968 20.2717078 22.3939164 20.2717078 22.0549034 23.4544484 25.651016 23.4544484 25.8462704 22.8777101 30.4980437 22.8777101 29.8479111 28 15 28zM84 28L84.5278304 23.5121222 85.3646346 23.4459041 86.5254323 12.524191 85.6864824 12.4494286 86.1585258 8 101 8C100.909883 8.8672434 100.828348 9.74089501 100.736085 10.6102745 100.663133 11.3023604 100.6052 11.9923102 100.493626 12.6779878 100.465733 12.8446011 100.253313 13.1137456 100.120283 13.1158817 98.7062981 13.1457866 97.2944592 13.1351063 95.8482898 13.1351063L95.8482898 12.5071024 92.2393033 12.5071024 91.889562 15.6855709 92.6705793 15.6855709C92.7113467 15.3395279 92.9001641 15.1964114 93.3250032 15.2049557 94.657453 15.2412688 95.9920485 15.2199081 97.4231983 15.2199081 97.3781396 15.7304283 97.3373722 16.1982271 97.2880222 16.6660258 97.1678657 17.8536794 97.0562918 19.045605 96.9039505 20.2311225 96.8417266 20.4212325 96.685094 20.5664851 96.4855484 20.6177507 95.1895747 20.6476557 93.8957466 20.6369753 92.5976272 20.6327032 92.4860533 20.6327032 92.2907989 20.5985261 92.277925 20.5472605 92.142749 20.023924 91.7522403 20.3144291 91.4132273 20.2353946L91.0677774 23.4501762 94.6445791 23.4501762 94.8140856 22.8691659 99.4572763 22.8691659 98.8436198 28 84 28zM0 27.4211257L.347771762 24.5587953C.39150354 24.2191605.431070387 23.8773897.4727197 23.5121222L1.28071637 23.4651287 2.41357768 12.5284631 1.60558101 12.462245 2.05539359 8 9.22115785 8 8.77342774 12.4494286 7.94252395 12.5220549 6.8179925 23.4565844 10.3915035 23.4565844 10.5226989 22.8777101 15 22.8777101 14.5397751 28 0 28 0 27.4211257zM81.639229 0C81.8076684.05090236 81.9717889.106432207 82.1423878.155020824 83.9217989.638593244 85.1030343 2.1633503 84.9929008 3.83850069 84.9691465 4.19713096 84.9108406 4.55807497 84.863332 4.95835261L81.8659744 4.95835261C81.9026855 4.5812124 81.9437157 4.22489588 81.9696294 3.87089311 82.0236164 3.11661268 81.6521859 2.73253124 80.8186268 2.72790375 79.1687844 2.71633503 77.518942 2.72096252 75.8690996 2.72559 74.7936788 2.72790375 74.1609513 3.25775104 74.0421799 4.2364646 73.9493223 5 73.9493223 5 73.1028063 5L71.0728955 5C70.6366806 2.86210088 72.2044628.689495604 74.5388602.129569644 74.6921832.0948634891 74.8390278.0439611291 74.9880319 0L81.639229 0z"/>
  </g>
</svg>
